<?xml version="1.0" encoding="UTF-8"?>
<svg version="1.1" xmlns="http://www.w3.org/2000/svg" width="96" height="96">
<path d="M0 0 C7.13159199 6.8405066 10.84893138 15.03679316 11.6875 24.875 C11.82100065 36.50624395 8.21354908 45.29598075 0.17578125 53.67578125 C-7.66491857 60.60563054 -17.47599329 63.33151936 -27.8125 62.75 C-38.49885543 61.39729678 -46.17294943 56.96564523 -53.3125 48.875 C-59.78437051 39.20508575 -61.30555619 29.22352142 -59.3125 17.875 C-57.08078066 8.80023762 -51.58344552 1.45320944 -43.85546875 -3.79296875 C-29.24340984 -11.63975944 -12.83059319 -10.74277477 0 0 Z " fill="#C2D254" transform="translate(72.3125,21.125)"/>
<path d="M0 0 C0.66 0.33 1.32 0.66 2 1 C1.01 2.485 1.01 2.485 0 4 C-0.66 4 -1.32 4 -2 4 C-2 4.99 -2 5.98 -2 7 C0.97 7.495 0.97 7.495 4 8 C4 6.35 4 4.7 4 3 C4.99 3 5.98 3 7 3 C6.34 4.98 5.68 6.96 5 9 C2.69 8.67 0.38 8.34 -2 8 C-2.33 8.99 -2.66 9.98 -3 11 C-3.66 10.34 -4.32 9.68 -5 9 C-5 8.01 -5 7.02 -5 6 C-7.53673288 7.3553326 -7.53673288 7.3553326 -10 9 C-10 9.66 -10 10.32 -10 11 C-9.01 11.33 -8.02 11.66 -7 12 C-6.3125 14.0625 -6.3125 14.0625 -6 16 C-6.99 16.33 -7.98 16.66 -9 17 C-8.896875 17.86625 -8.79375 18.7325 -8.6875 19.625 C-9.04875968 23.52660457 -10.28373276 24.57259486 -12.87890625 27.3515625 C-15.00649459 30.47993282 -14.42645144 33.34470194 -14 37 C-12.17155657 39.26914019 -12.17155657 39.26914019 -9.46875 39.16015625 C-8.4890625 39.12792969 -7.509375 39.09570312 -6.5 39.0625 C-1.19602978 38.90198511 -1.19602978 38.90198511 1 40 C3.26416258 45.45999014 4.33368026 51.1168092 4.69140625 56.9921875 C5.04579362 59.29794835 5.86857229 60.97342667 7 63 C11.86770155 62.26149396 11.86770155 62.26149396 15.54296875 59.2265625 C18.1497266 55.11384778 20.18567815 51.47570863 19.8125 46.5 C20 44 20 44 21.875 41.6875 C24 40 24 40 26 40 C26.33 38.35 26.66 36.7 27 35 C26.278125 35.268125 25.55625 35.53625 24.8125 35.8125 C22 36 22 36 19.25 33.9375 C16.83606049 30.78596786 16.27268725 28.9085172 16 25 C18.75717702 26.37858851 19.46321746 28.37466315 21 31 C21.66 31.66 22.32 32.32 23 33 C25.46650198 33.05845809 25.46650198 33.05845809 28 32 C30.31607874 29.54366927 30.31607874 29.54366927 32 27 C29.69 26.67 27.38 26.34 25 26 C25.33 25.34 25.66 24.68 26 24 C27.64767247 24.28109113 29.29313145 24.57518526 30.9375 24.875 C32.31228516 25.11863281 32.31228516 25.11863281 33.71484375 25.3671875 C34.46894531 25.57601562 35.22304687 25.78484375 36 26 C36.495 26.99 36.495 26.99 37 28 C38.485 28.495 38.485 28.495 40 29 C40 29.99 40 30.98 40 32 C40.66 32 41.32 32 42 32 C42.495 30.515 42.495 30.515 43 29 C45.96420441 33.94034068 44.97683159 38.52536924 44 44 C41.72792286 53.07462136 36.28495514 60.41228006 28.54296875 65.66796875 C18.54062922 71.03930384 8.41217439 72.12545045 -2.56640625 69.3515625 C-11.39834732 66.33847462 -18.61696233 60.25193602 -23 52 C-27.47836249 41.67753328 -28.19310737 31.66632751 -24.5 20.875 C-20.15265107 11.16383565 -12.79527372 4.80141489 -3 1 C-2.01 0.67 -1.02 0.34 0 0 Z " fill="#355296" transform="translate(39,13)"/>
<path d="M0 0 C0 0.66 0 1.32 0 2 C1.19625 1.95875 2.3925 1.9175 3.625 1.875 C7.48901059 1.90919478 10.52511923 2.14134284 14 4 C15.6875 7.4375 15.6875 7.4375 17 11 C18.23086042 12.9846938 18.23086042 12.9846938 20 14 C22.62570704 14.25069913 22.62570704 14.25069913 25 14 C24.52354792 18.28806873 23.34097516 20.26647487 20 23 C19.34 23 18.68 23 18 23 C18.3403125 24.8871875 18.3403125 24.8871875 18.6875 26.8125 C19.17921755 30.76701719 19.17921755 30.76701719 17.75 32.625 C16.88375 33.305625 16.88375 33.305625 16 34 C14.98377342 35.99180409 13.98287008 37.99152635 13 40 C11 42 11 42 8.0625 42.375 C5 42 5 42 3.1875 40.5625 C1.73297241 37.42378257 1.51986506 34.67000675 1.25 31.24609375 C0.92604279 28.33554072 -0.03853321 25.75620479 -1 23 C-1 21.68 -1 20.36 -1 19 C-2.35544922 19.05220703 -2.35544922 19.05220703 -3.73828125 19.10546875 C-4.91777344 19.13253906 -6.09726562 19.15960938 -7.3125 19.1875 C-8.48425781 19.22230469 -9.65601563 19.25710937 -10.86328125 19.29296875 C-14 19 -14 19 -15.8828125 17.72265625 C-17.45593322 15.2969701 -17.58818378 12.98131194 -17.48828125 10.13671875 C-16.59909667 6.24564705 -14.08443778 3.44066751 -11 1 C-7.36388959 -0.26975284 -3.82477351 -0.07355334 0 0 Z " fill="#E0EA75" transform="translate(41,34)"/>
<path d="M0 0 C2.31 0.33 4.62 0.66 7 1 C6.52354792 5.28806873 5.34097516 7.26647487 2 10 C1.34 10 0.68 10 0 10 C0.3403125 11.8871875 0.3403125 11.8871875 0.6875 13.8125 C1.17921755 17.76701719 1.17921755 17.76701719 -0.25 19.625 C-1.11625 20.305625 -1.11625 20.305625 -2 21 C-3.01622658 22.99180409 -4.01712992 24.99152635 -5 27 C-7 29 -7 29 -9.9375 29.375 C-13 29 -13 29 -14.8125 27.5625 C-16.24222613 24.4773015 -16.48162478 21.82681004 -16.75 18.4609375 C-17.14586899 14.56410211 -18.07462814 10.80031356 -19 7 C-16.6875 4.9375 -16.6875 4.9375 -14 3 C-13.01 3.33 -12.02 3.66 -11 4 C-7.58900832 4 -4.36911686 3.50854594 -1 3 C-0.67 2.01 -0.34 1.02 0 0 Z " fill="#A9B92D" transform="translate(59,47)"/>
<path d="M0 0 C1.8141927 0.28094582 3.62635001 0.57506433 5.4375 0.875 C6.95150391 1.11863281 6.95150391 1.11863281 8.49609375 1.3671875 C9.32238281 1.57601562 10.14867188 1.78484375 11 2 C11.33 2.66 11.66 3.32 12 4 C12.99 4.33 13.98 4.66 15 5 C15 5.99 15 6.98 15 8 C15.66 8.33 16.32 8.66 17 9 C16.56429687 9.61746094 16.12859375 10.23492187 15.6796875 10.87109375 C14.78636719 12.14146484 14.78636719 12.14146484 13.875 13.4375 C13.23691406 14.34371094 12.59882812 15.24992187 11.94140625 16.18359375 C9.68338012 19.4593218 7.55246424 22.8058214 5.45703125 26.1875 C3.81843423 28.22586198 2.33611456 28.90355722 0 30 C-0.12375 30.61875 -0.2475 31.2375 -0.375 31.875 C-1.39927013 35.35751846 -3.94158249 36.29434408 -7 38 C-8.65754821 38.37606224 -10.32391725 38.71780239 -12 39 C-11.21258141 37.53936857 -10.4199095 36.08156827 -9.625 34.625 C-8.96371094 33.40683594 -8.96371094 33.40683594 -8.2890625 32.1640625 C-7 30 -7 30 -5 28 C-5.04125 26.72125 -5.0825 25.4425 -5.125 24.125 C-5.22006359 20.8571892 -5.18486503 20.24648671 -3.125 17.5 C-1 16 -1 16 1 16 C1.33 14.35 1.66 12.7 2 11 C1.278125 11.268125 0.55625 11.53625 -0.1875 11.8125 C-3 12 -3 12 -5.75 9.9375 C-8.16393951 6.78596786 -8.72731275 4.9085172 -9 1 C-6.24282298 2.37858851 -5.53678254 4.37466315 -4 7 C-3.34 7.66 -2.68 8.32 -2 9 C0.46650198 9.05845809 0.46650198 9.05845809 3 8 C5.31607874 5.54366927 5.31607874 5.54366927 7 3 C4.69 2.67 2.38 2.34 0 2 C0 1.34 0 0.68 0 0 Z " fill="#2F4B8E" transform="translate(64,37)"/>
<path d="M0 0 C2.91227269 3.28804981 4.49701212 5.59885603 5 10 C-4.24767802 11.16718266 -4.24767802 11.16718266 -7.8125 10.375 C-10.16173825 9.7275855 -10.16173825 9.7275855 -12.5 11.5 C-15 13 -15 13 -17.3125 12.6875 C-18.199375 12.460625 -19.08625 12.23375 -20 12 C-22.67359767 11.90023889 -25.32328603 11.95463197 -28 12 C-28.33 11.34 -28.66 10.68 -29 10 C-19.64889467 5.43649762 -19.64889467 5.43649762 -15 6 C-12.2716232 6 -9.68345937 5.46668859 -7 5 C-6.67 4.01 -6.34 3.02 -6 2 C-2.9375 0.8125 -2.9375 0.8125 0 0 Z " fill="#BAE454" transform="translate(55,41)"/>
<path d="M0 0 C8.11509053 4.75029689 13.02642836 10.98627826 16.46875 19.703125 C17.23390166 23.0112807 16.48633101 25.02733798 15 28 C14.34 28 13.68 28 13 28 C13 27.01 13 26.02 13 25 C11.68 24.67 10.36 24.34 9 24 C9 23.34 9 22.68 9 22 C7.35 22 5.7 22 4 22 C3.91773332 18.95613276 4.02391783 16.92824652 5 14 C5.02784414 10.92600726 4.74746947 7.98429975 4 5 C2.08261145 3.03712176 2.08261145 3.03712176 0 2 C0 1.34 0 0.68 0 0 Z " fill="#A97940" transform="translate(66,17)"/>
<path d="M0 0 C-0.99 1.485 -0.99 1.485 -2 3 C-2.66 3 -3.32 3 -4 3 C-4 3.99 -4 4.98 -4 6 C-1.03 6.495 -1.03 6.495 2 7 C2 5.35 2 3.7 2 2 C2.99 2 3.98 2 5 2 C4.34 3.98 3.68 5.96 3 8 C0.69 7.67 -1.62 7.34 -4 7 C-4.33 7.99 -4.66 8.98 -5 10 C-5.66 9.34 -6.32 8.68 -7 8 C-7 7.01 -7 6.02 -7 5 C-14.49844913 7.57759189 -20.092217 13.97603524 -24.1015625 20.703125 C-25.88814014 25.27054958 -25.91096453 30.14351989 -26 35 C-26.66 35 -27.32 35 -28 35 C-29.88254905 29.53411621 -27.81707512 24.26553887 -26 19 C-21.25711785 9.42585902 -13.96970555 3.31963928 -4.1015625 -0.46875 C-2 -1 -2 -1 0 0 Z " fill="#5470BC" transform="translate(41,14)"/>
<path d="M0 0 C0.33 0.99 0.66 1.98 1 3 C1.66 3.33 2.32 3.66 3 4 C2.34644531 4.92619141 2.34644531 4.92619141 1.6796875 5.87109375 C0.78636719 7.14146484 0.78636719 7.14146484 -0.125 8.4375 C-0.76308594 9.34371094 -1.40117188 10.24992187 -2.05859375 11.18359375 C-4.31661988 14.4593218 -6.44753576 17.8058214 -8.54296875 21.1875 C-10.18156577 23.22586198 -11.66388544 23.90355722 -14 25 C-14.12375 25.61875 -14.2475 26.2375 -14.375 26.875 C-15.39927013 30.35751846 -17.94158249 31.29434408 -21 33 C-23.875 33.75 -23.875 33.75 -26 34 C-24.68 31.36 -23.36 28.72 -22 26 C-21.67 26.99 -21.34 27.98 -21 29 C-19.12766965 27.30598682 -17.91832599 25.85220893 -16.6875 23.625 C-15 21 -15 21 -12.3125 18.9375 C-6.8264634 14.63688839 -1.15290554 6.96755955 0 0 Z " fill="#2C3F72" transform="translate(78,42)"/>
<path d="M0 0 C-0.33 0.66 -0.66 1.32 -1 2 C-1.556875 1.62875 -2.11375 1.2575 -2.6875 0.875 C-5.79962989 -0.30256266 -7.0330802 0.70672727 -10 2 C-10.99 1.67 -11.98 1.34 -13 1 C-13 0.34 -13 -0.32 -13 -1 C-13.598125 -0.67 -14.19625 -0.34 -14.8125 0 C-17 1 -17 1 -20 1 C-20.66 0.34 -21.32 -0.32 -22 -1 C-22.33 0.65 -22.66 2.3 -23 4 C-25.97 3.505 -25.97 3.505 -29 3 C-29 0 -29 0 -27.3125 -2.125 C-19.65037206 -8.33753616 -7.73879219 -4.10824771 0 0 Z " fill="#A8CF51" transform="translate(66,17)"/>
<path d="M0 0 C1.2065625 0.0309375 1.2065625 0.0309375 2.4375 0.0625 C2.7675 0.7225 3.0975 1.3825 3.4375 2.0625 C3.1075 2.7225 2.7775 3.3825 2.4375 4.0625 C3.0975 4.0625 3.7575 4.0625 4.4375 4.0625 C4.4375 3.0725 4.4375 2.0825 4.4375 1.0625 C9.8825 1.5575 9.8825 1.5575 15.4375 2.0625 C15.4375 4.0425 15.4375 6.0225 15.4375 8.0625 C13.4787957 7.92173685 11.52053907 7.7747324 9.5625 7.625 C8.47195312 7.54378906 7.38140625 7.46257813 6.2578125 7.37890625 C3.4375 7.0625 3.4375 7.0625 1.4375 6.0625 C1.4375 5.4025 1.4375 4.7425 1.4375 4.0625 C-2.1925 4.3925 -5.8225 4.7225 -9.5625 5.0625 C-9.8925 4.4025 -10.2225 3.7425 -10.5625 3.0625 C-9.428125 2.753125 -8.29375 2.44375 -7.125 2.125 C0 0 0 0 0 0 Z " fill="#83ADD4" transform="translate(39.5625,29.9375)"/>
<path d="M0 0 C2.9375 1.1875 2.9375 1.1875 6 3 C6.875 5.6875 6.875 5.6875 7 8 C7.33 8 7.66 8 8 8 C8.19294408 12.82360189 7.75747614 16.49646738 6 21 C3.69 20.67 1.38 20.34 -1 20 C-1 19.34 -1 18.68 -1 18 C-0.34 17.67 0.32 17.34 1 17 C1.93871261 12.30643695 2.09746283 7.77567869 2 3 C1.34 3 0.68 3 0 3 C0 2.01 0 1.02 0 0 Z " fill="#C6A647" transform="translate(64,18)"/>
<path d="M0 0 C8.11509053 4.75029689 13.02642836 10.98627826 16.46875 19.703125 C17.23390166 23.0112807 16.48633101 25.02733798 15 28 C14.34 28 13.68 28 13 28 C13 27.01 13 26.02 13 25 C12.01 24.67 11.02 24.34 10 24 C10.66 24 11.32 24 12 24 C12 20.37 12 16.74 12 13 C11.01 13.33 10.02 13.66 9 14 C8.7215625 12.700625 8.7215625 12.700625 8.4375 11.375 C6.7535174 7.42130173 4.81553961 5.84363416 1.4609375 3.296875 C0.97882813 2.86890625 0.49671875 2.4409375 0 2 C0 1.34 0 0.68 0 0 Z " fill="#7C874F" transform="translate(66,17)"/>
<path d="M0 0 C2.31 0.33 4.62 0.66 7 1 C6.52354792 5.28806873 5.34097516 7.26647487 2 10 C1.34 10 0.68 10 0 10 C-0.33 11.32 -0.66 12.64 -1 14 C-1.33 12.35 -1.66 10.7 -2 9 C-2.66 9 -3.32 9 -4 9 C-3.35455571 5.51460083 -1.89865603 2.97180943 0 0 Z " fill="#90C436" transform="translate(59,47)"/>
<path d="M0 0 C0.66 2.31 1.32 4.62 2 7 C0.68 7.33 -0.64 7.66 -2 8 C-2.33 7.01 -2.66 6.02 -3 5 C-5.01508358 4.26676204 -5.01508358 4.26676204 -7 4 C-7 3.01 -7 2.02 -7 1 C-8.65 1 -10.3 1 -12 1 C-12 0.67 -12 0.34 -12 0 C-7.6835078 -0.76173392 -4.25566547 -1.16063604 0 0 Z " fill="#4E80CD" transform="translate(40,53)"/>
<path d="M0 0 C0.33 0 0.66 0 1 0 C0.39220183 6.44266055 0.39220183 6.44266055 -1.1875 8.6875 C-1.785625 9.120625 -2.38375 9.55375 -3 10 C-4.485 11.11375 -4.485 11.11375 -6 12.25 C-6.99 12.8275 -7.98 13.405 -9 14 C-9.99 13.67 -10.98 13.34 -12 13 C-11.54625 12.401875 -11.0925 11.80375 -10.625 11.1875 C-9.36704087 9.49409348 -8.17015276 7.75522914 -7 6 C-7 6.99 -7 7.98 -7 9 C-4.38049964 6.62997587 -2.76316117 4.04546021 -1 1 C-0.67 0.67 -0.34 0.34 0 0 Z " fill="#2D426C" transform="translate(64,62)"/>
<path d="M0 0 C0.66 1.32 1.32 2.64 2 4 C-2.86978336 6.99678976 -7.63046194 6.26342072 -13 5 C-13 4.34 -13 3.68 -13 3 C-8.71 2.01 -4.42 1.02 0 0 Z " fill="#A7DD45" transform="translate(58,46)"/>
<path d="M0 0 C0.66 1.32 1.32 2.64 2 4 C-2.98229776 5.91626837 -7.72684667 6.5547115 -13 7 C-9.25 5 -9.25 5 -7 5 C-6.67 4.01 -6.34 3.02 -6 2 C-2.9375 0.8125 -2.9375 0.8125 0 0 Z " fill="#C6E75F" transform="translate(55,41)"/>
<path d="M0 0 C-0.33 0.66 -0.66 1.32 -1 2 C-1.82177734 1.566875 -1.82177734 1.566875 -2.66015625 1.125 C-10.56726323 -2.57784034 -17.42857834 -2.41142824 -26 -2 C-25.67 -2.66 -25.34 -3.32 -25 -4 C-16.26418068 -6.48940306 -7.78843898 -4.13460341 0 0 Z " fill="#90AD5E" transform="translate(66,17)"/>
<path d="M0 0 C1.485 0.99 1.485 0.99 3 2 C3.46271324 6.81221774 2.74817615 10.52029862 1 15 C0.34 14.67 -0.32 14.34 -1 14 C-1.02685938 11.85423363 -1.04633088 9.70837355 -1.0625 7.5625 C-1.07410156 6.36753906 -1.08570312 5.17257813 -1.09765625 3.94140625 C-1 1 -1 1 0 0 Z " fill="#BE9141" transform="translate(69,24)"/>
<path d="M0 0 C0.33 0.66 0.66 1.32 1 2 C0.54625 2.94875 0.0925 3.8975 -0.375 4.875 C-2.74954368 9.98189531 -2.7358402 15.45264411 -3 21 C-3.66 21 -4.32 21 -5 21 C-6.29814095 17.34240017 -5.7043336 14.77223795 -4.75 11.0625 C-4.49734375 10.04285156 -4.2446875 9.02320313 -3.984375 7.97265625 C-2.99590237 4.9876258 -1.71896456 2.62190382 0 0 Z " fill="#4A64B5" transform="translate(18,28)"/>
<path d="M0 0 C0.99 0.33 1.98 0.66 3 1 C3.625 3.8125 3.625 3.8125 4 7 C3.01 8.485 3.01 8.485 2 10 C1.34 10 0.68 10 0 10 C0 9.01 0 8.02 0 7 C-0.99 6.67 -1.98 6.34 -3 6 C-2.34 6 -1.68 6 -1 6 C-0.67 4.02 -0.34 2.04 0 0 Z " fill="#746545" transform="translate(79,35)"/>
<path d="M0 0 C1.2065625 0.0309375 1.2065625 0.0309375 2.4375 0.0625 C2.7675 0.7225 3.0975 1.3825 3.4375 2.0625 C2.7775 2.0625 2.1175 2.0625 1.4375 2.0625 C1.4375 2.7225 1.4375 3.3825 1.4375 4.0625 C-2.1925 4.3925 -5.8225 4.7225 -9.5625 5.0625 C-9.8925 4.4025 -10.2225 3.7425 -10.5625 3.0625 C-9.428125 2.753125 -8.29375 2.44375 -7.125 2.125 C0 0 0 0 0 0 Z " fill="#8AB2CB" transform="translate(39.5625,29.9375)"/>
<path d="M0 0 C0.66 0.33 1.32 0.66 2 1 C1.34 2.98 0.68 4.96 0 7 C-2.31 6.67 -4.62 6.34 -7 6 C-7.33 6.99 -7.66 7.98 -8 9 C-8.66 8.34 -9.32 7.68 -10 7 C-10 6.01 -10 5.02 -10 4 C-9.01 3.67 -8.02 3.34 -7 3 C-7 3.66 -7 4.32 -7 5 C-4.03 5.495 -4.03 5.495 -1 6 C-1.020625 5.195625 -1.04125 4.39125 -1.0625 3.5625 C-1 1 -1 1 0 0 Z " fill="#789CB9" transform="translate(44,15)"/>
<path d="M0 0 C-0.99 0.66 -1.98 1.32 -3 2 C-3.72965366 4.56282742 -3.72965366 4.56282742 -4 7 C-6.97 6.505 -6.97 6.505 -10 6 C-10 5.01 -10 4.02 -10 3 C-6.62637846 0.39749195 -4.23092172 -0.36265043 0 0 Z " fill="#BDD25B" transform="translate(47,14)"/>
<path d="M0 0 C0.33 1.98 0.66 3.96 1 6 C-2 7 -2 7 -4.1875 6.0625 C-4.785625 5.711875 -5.38375 5.36125 -6 5 C-4.87312259 1.61936778 -3.78825335 0 0 0 Z " fill="#A1C884" transform="translate(34,19)"/>
<path d="M0 0 C2.97 0.495 2.97 0.495 6 1 C4.60667426 4.36720387 3.0210714 5.9859524 0 8 C0 5.36 0 2.72 0 0 Z " fill="#B09643" transform="translate(65,39)"/>
<path d="M0 0 C2 1 2 1 3.3125 3.3125 C5.17518219 6.27899385 7.18861522 7.94844894 10 10 C8.3125 10.8125 8.3125 10.8125 6 11 C2.65627342 8.43388425 1.19921776 6.81219549 0.1875 2.6875 C0.125625 1.800625 0.06375 0.91375 0 0 Z " fill="#668EA9" transform="translate(55,38)"/>
<path d="M0 0 C2.9375 1.3125 2.9375 1.3125 6 3 C6.33 3.99 6.66 4.98 7 6 C5.35 6.33 3.7 6.66 2 7 C2 5.68 2 4.36 2 3 C1.34 3 0.68 3 0 3 C0 2.01 0 1.02 0 0 Z " fill="#AE9F4C" transform="translate(64,18)"/>
<path d="M0 0 C0.33 0 0.66 0 1 0 C0.67 2.31 0.34 4.62 0 7 C-1.32 7.33 -2.64 7.66 -4 8 C-2.25 2.25 -2.25 2.25 0 0 Z " fill="#699437" transform="translate(64,62)"/>
<path d="M0 0 C0.33 0.66 0.66 1.32 1 2 C-0.28965176 3.37562854 -1.62689293 4.70766393 -3 6 C-3.66 6 -4.32 6 -5 6 C-5.33 7.32 -5.66 8.64 -6 10 C-6 7.69 -6 5.38 -6 3 C-4.02 2.01 -2.04 1.02 0 0 Z " fill="#79AD32" transform="translate(64,51)"/>
<path d="M0 0 C3.875 1.75 3.875 1.75 5 4 C4.34 4 3.68 4 3 4 C3 4.99 3 5.98 3 7 C2.34 7 1.68 7 1 7 C1 6.01 1 5.02 1 4 C-0.65 3.67 -2.3 3.34 -4 3 C-2.68 2.67 -1.36 2.34 0 2 C0 1.34 0 0.68 0 0 Z " fill="#A4D380" transform="translate(41,27)"/>
<path d="M0 0 C-0.33 0.99 -0.66 1.98 -1 3 C-1.66 2.67 -2.32 2.34 -3 2 C-4.53668865 1.77532169 -6.07968054 1.59203195 -7.625 1.4375 C-8.44226563 1.35371094 -9.25953125 1.26992188 -10.1015625 1.18359375 C-10.72804688 1.12300781 -11.35453125 1.06242187 -12 1 C-12 0.67 -12 0.34 -12 0 C-7.6835078 -0.76173392 -4.25566547 -1.16063604 0 0 Z " fill="#6497BA" transform="translate(40,53)"/>
<path d="M0 0 C0.66 0 1.32 0 2 0 C1.67 1.65 1.34 3.3 1 5 C0.01 5.33 -0.98 5.66 -2 6 C-1.125 1.125 -1.125 1.125 0 0 Z " fill="#2A4384" transform="translate(59,65)"/>
<path d="M0 0 C3 3 3 3 5 6 C5 6.99 5 7.98 5 9 C4.34 9 3.68 9 3 9 C2.01 6.03 1.02 3.06 0 0 Z " fill="#294499" transform="translate(14,58)"/>
</svg>
